<svg width="180" height="180" viewBox="0 0 180 180" fill="none" xmlns="http://www.w3.org/2000/svg">
<g clip-path="url(#clip0_174_59)">
<rect y="-1" width="512" height="512" fill="#FF2346"/>
<path d="M49.9458 28.9512C9.39601 33.0123 -28.1797 70.3626 -28.1797 118.177C-28.1797 165.991 12.1159 208.181 61.8203 208.181C111.525 208.181 151.82 167.883 151.82 118.177C151.82 64.298 104.633 21.8889 49.9458 28.9512ZM61.8149 191.506C21.3165 191.506 -11.5115 158.677 -11.5115 118.177C-11.5115 77.6764 21.3192 44.8469 61.8149 44.8469C102.311 44.8469 135.139 77.6764 135.139 118.177C135.139 158.677 102.311 191.506 61.8149 191.506Z" fill="white"/>
<path d="M61.8142 63.0215C31.3519 63.0215 6.65918 87.718 6.65918 118.179C6.65918 148.64 31.3546 173.336 61.8142 173.336C92.2738 173.336 116.969 148.643 116.969 118.179C116.969 87.7153 92.2765 63.0215 61.8142 63.0215ZM97.6595 122.059L71.7583 128.142L65.675 154.045C64.7315 158.136 58.8591 158.136 57.9155 154.045L51.8322 128.142L25.931 122.059C21.843 121.115 21.843 115.243 25.931 114.299L51.8322 108.215L57.9155 82.3131C58.8591 78.2249 64.7315 78.2249 65.675 82.3131L71.8097 108.215L97.6595 114.299C101.802 115.243 101.802 121.115 97.6595 122.059Z" fill="white"/>
<path d="M52.4853 -92.6418L70.0979 -92.6418L70.0979 45.4404L52.4854 45.4404L52.4853 -92.6418Z" fill="white"/>
</g>
<defs>
<clipPath id="clip0_174_59">
<rect width="180" height="180" fill="white"/>
</clipPath>
</defs>
</svg>
