<svg width="192" height="192" viewBox="0 0 192 192" fill="none" xmlns="http://www.w3.org/2000/svg">
<g clip-path="url(#clip0_174_51)">
<rect y="-1" width="512" height="512" fill="#FF2346"/>
<path d="M53.2752 30.8805C10.0222 35.2124 -30.0586 75.0527 -30.0586 126.054C-30.0586 177.056 12.9234 222.059 65.9414 222.059C118.959 222.059 161.941 179.075 161.941 126.054C161.941 68.5837 111.608 23.3474 53.2752 30.8805ZM65.9356 204.273C22.7374 204.273 -12.2792 169.254 -12.2792 126.054C-12.2792 82.854 22.7402 47.8359 65.9356 47.8359C109.131 47.8359 144.148 82.854 144.148 126.054C144.148 169.254 109.131 204.273 65.9356 204.273Z" fill="white"/>
<path d="M65.9355 67.2227C33.4424 67.2227 7.10352 93.5656 7.10352 126.057C7.10352 158.549 33.4453 184.892 65.9355 184.892C98.4258 184.892 124.768 158.552 124.768 126.057C124.768 93.5627 98.4287 67.2227 65.9355 67.2227ZM104.171 130.196L76.5426 136.685L70.0538 164.314C69.0473 168.678 62.7834 168.678 61.7769 164.314L55.2881 136.685L27.6601 130.196C23.2996 129.189 23.2996 122.925 27.6601 121.919L55.2881 115.43L61.7769 87.8004C62.7834 83.4397 69.0473 83.4397 70.0538 87.8004L76.5974 115.43L104.171 121.919C108.589 122.925 108.589 129.189 104.171 130.196Z" fill="white"/>
<path d="M55.9844 -98.8179L74.7711 -98.8179L74.7711 48.4697L55.9844 48.4697L55.9844 -98.8179Z" fill="white"/>
</g>
<defs>
<clipPath id="clip0_174_51">
<rect width="192" height="192" fill="white"/>
</clipPath>
</defs>
</svg>
