<svg width="511" height="511" viewBox="0 0 511 511" fill="none" xmlns="http://www.w3.org/2000/svg">
<g clip-path="url(#clip0_174_3)">
<rect y="-1" width="512" height="512" fill="#FF2346"/>
<path d="M141.789 82.1875C26.6732 93.7166 -80 199.75 -80 335.488C-80 471.227 34.3947 591 175.5 591C316.605 591 431 476.6 431 335.488C431 182.533 297.041 62.1384 141.789 82.1875ZM175.485 543.663C60.5142 543.663 -32.6809 450.464 -32.6809 335.488C-32.6809 220.513 60.5219 127.313 175.485 127.313C290.447 127.313 383.643 220.513 383.643 335.488C383.643 450.464 290.447 543.663 175.485 543.663Z" fill="white"/>
<path d="M175.485 178.91C89.0055 178.91 18.9058 249.021 18.9058 335.496C18.9058 421.972 89.0132 492.082 175.485 492.082C261.956 492.082 332.064 421.979 332.064 335.496C332.064 249.013 261.964 178.91 175.485 178.91ZM277.246 346.511L203.715 363.781L186.445 437.315C183.767 448.929 167.095 448.929 164.417 437.315L147.147 363.781L73.6163 346.511C62.011 343.832 62.011 327.16 73.6163 324.481L147.147 307.211L164.417 233.677C167.095 222.071 183.767 222.071 186.445 233.677L203.861 307.211L277.246 324.481C289.004 327.16 289.004 343.832 277.246 346.511Z" fill="white"/>
<path d="M149 -263L199 -263L199 129L149 129L149 -263Z" fill="white"/>
</g>
<defs>
<clipPath id="clip0_174_3">
<rect width="511" height="511" fill="white"/>
</clipPath>
</defs>
</svg>
